<svg version="1.1" id="Layer_1" xmlns="http://www.w3.org/2000/svg" x="0px" y="0px" viewBox="0 0 100 100" style="enable-background:new 0 0 100 100" xml:space="preserve"><path d="M73.03,18C68.31,10.22,60.46,5.49,51.49,5.04c-0.99-0.05-1.99-0.05-2.98,0C39.54,5.49,31.69,10.22,26.97,18	c-4.82,7.94-5.4,17.7-1.55,26.1l22.76,49.73C48.51,94.54,49.22,95,50,95s1.49-0.46,1.82-1.17L74.58,44.1	C78.42,35.69,77.85,25.94,73.03,18z M70.94,42.44L50,88.19L29.06,42.44c-3.3-7.2-2.8-15.56,1.33-22.36	c4.02-6.63,10.7-10.65,18.32-11.04c0.85-0.04,1.72-0.04,2.58,0c7.62,0.39,14.3,4.41,18.32,11.04	C73.74,26.88,74.24,35.24,70.94,42.44z M50,21c-6.07,0-11,4.93-11,11s4.93,11,11,11s11-4.93,11-11S56.07,21,50,21z M50,39	c-3.86,0-7-3.14-7-7s3.14-7,7-7c3.86,0,7,3.14,7,7S53.86,39,50,39z"/></svg>