<?xml version="1.0" encoding="utf-8"?>
<!-- Generator: Adobe Illustrator 23.0.1, SVG Export Plug-In . SVG Version: 6.00 Build 0)  -->
<svg version="1.1" id="Layer_1" xmlns="http://www.w3.org/2000/svg" xmlns:xlink="http://www.w3.org/1999/xlink" x="0px" y="0px"
	 viewBox="0 0 100 100" style="enable-background:new 0 0 100 100;" xml:space="preserve">
<path fill="#6563ff" d="M75.7,27.2C71,17.8,62,11.8,51.5,11.3c-0.5,0-1,0-1.5,0s-1,0-1.5,0C38,11.8,29,17.8,24.3,27.2c-4.9,9.8-4.1,21,2,30L46.7,87
	c0.8,1.1,2,1.7,3.3,1.7s2.5-0.6,3.3-1.7l20.4-29.7C79.9,48.3,80.6,37,75.7,27.2z M50,55.3c-8.3,0-15-6.7-15-15s6.7-15,15-15
	s15,6.7,15,15S58.3,55.3,50,55.3z M61,40.3c0,6.1-4.9,11-11,11s-11-4.9-11-11c0-6.1,4.9-11,11-11S61,34.2,61,40.3z"/>
</svg>
