<svg width="6" height="8" viewBox="0 0 6 8" fill="none" xmlns="http://www.w3.org/2000/svg">
<path d="M4.25111 6.34333C4.75811 5.62266 5.01161 4.844 5.01161 4.00666C5.01161 3.16933 4.75811 2.388 4.25111 1.66133C3.74411 0.934663 3.07389 0.422663 2.23828 0.12533C2.11911 0.0706633 1.96961 0.0426636 1.79122 0.0426636C1.48139 0.0426636 1.21272 0.144664 0.985944 0.347997C0.759167 0.552664 0.645779 0.801997 0.645779 1.09933C0.645779 1.33066 0.717279 1.526 0.861001 1.68533C1.00472 1.84466 1.17661 1.98266 1.37956 2.098C1.58178 2.21333 1.78472 2.34 1.98767 2.478C2.19061 2.616 2.36322 2.81066 2.50622 3.064C2.64922 3.31733 2.72072 3.63133 2.72072 4.00533C2.72072 4.37933 2.64922 4.69333 2.50622 4.94666C2.36322 5.2 2.19061 5.39533 1.98767 5.53266C1.78472 5.67 1.58178 5.79733 1.37956 5.91266C1.17661 6.028 1.004 6.166 0.861001 6.32533C0.718001 6.48466 0.645779 6.68066 0.645779 6.91133C0.645779 7.20866 0.759889 7.45866 0.985944 7.66266C1.21272 7.86533 1.48067 7.96866 1.79122 7.96866C1.96961 7.96866 2.11911 7.94133 2.23828 7.886C3.07317 7.57733 3.74411 7.06266 4.25111 6.34133V6.34333Z" fill="#B3B3B3"/>
</svg>
